<svg height="480pt" viewBox="0 0 480 480" width="480pt" xmlns="http://www.w3.org/2000/svg"><path d="m32 0h448v320h-448zm0 0" fill="#5789d6"/><path d="m192 376v104l32-32 32 32v-104" fill="#ca5057"/><path d="m208 448 8 8 8-8 16 16v-88h-48v88zm0 0" fill="#dc6068"/><path d="m0 32h448v320h-448zm0 0" fill="#699ce6"/><path d="m144 320h-64c0-26.511719-21.488281-48-48-48v-160c26.511719 0 48-21.488281 48-48h288c0 26.511719 21.488281 48 48 48v160c-26.511719 0-48 21.488281-48 48h-64" fill="#d9d7d8"/><path d="m304 304c0 44.183594-35.816406 80-80 80s-80-35.816406-80-80 35.816406-80 80-80 80 35.816406 80 80zm0 0" fill="#eebc5a"/><path d="m272 304c0 26.507812-21.492188 48-48 48s-48-21.492188-48-48 21.492188-48 48-48 48 21.492188 48 48zm0 0" fill="#f8cf6a"/><g fill="#efedee"><path d="m112 96h224v32h-224zm0 0"/><path d="m56 152h64v16h-64zm0 0"/><path d="m56 184h64v16h-64zm0 0"/><path d="m136 184h256v16h-256zm0 0"/><path d="m136 152h256v16h-256zm0 0"/></g></svg>