<?xml version="1.0" encoding="UTF-8"?>
<svg xmlns="http://www.w3.org/2000/svg" xmlns:xlink="http://www.w3.org/1999/xlink" width="512" height="512" viewBox="0 0 59 59" version="1.1"><!-- Generator: Sketch 51.3 (57544) - http://www.bohemiancoding.com/sketch --><title>010 - Idea</title><desc>Created with Sketch.</desc><defs/><g id="Page-1" stroke="none" stroke-width="1" fill="none" fill-rule="evenodd"><g id="010---Idea"><path d="M17.851,51.3 C21.281,52.851 22.783,59 22.783,59 L47.883,58.931 C47.4121814,57.9546289 46.877696,57.01026 46.283,56.104 C45.8079274,55.1351664 45.409054,54.1307944 45.09,53.1 C44.5026366,51.1113602 44.0959865,49.0737587 43.875,47.012 C43.5021266,43.8441928 43.9794793,40.6342289 45.258,37.712 C46.385,35.142 48.342,33.106 49.835,30.753 C51.3118424,28.4546935 52.1069104,25.7848183 52.128,23.053 C52.1837766,20.2855688 51.8440127,17.524356 51.119,14.853 C50.1713082,11.6167572 48.1935564,8.77810583 45.486,6.768 C40.534,2.88 35.474,0.706 29.069,1.032 C25.8639061,1.25519593 22.6794183,1.71241457 19.541,2.4 C16.123,3.088 12.504,4.366 10.051,6.956 C8.37766038,8.74409793 7.08486958,10.8533882 6.251,13.156 C5.86015176,14.3014161 5.54218297,15.470419 5.299,16.656 C4.88921474,17.9456944 4.39515102,19.2070768 3.82,20.432 C3.65097873,20.8051029 3.57743674,21.214395 3.606,21.623 C3.8,23.007 5.874,23.6 5.89,25.029 C5.86871908,25.3444419 5.77163847,25.6500914 5.607,25.92 C4.39034374,28.4911042 2.89684314,30.921815 1.153,33.169 C0.742,33.674 -0.095,34.669 0.009,35.383 C0.083,35.89 0.691,36.311 1.066,36.59 C1.866,37.184 3.495,37.59 3.698,38.662 C3.80398936,39.2078042 3.73831308,39.7730394 3.51,40.28 C2.956,41.447 2.343,42.069 2.778,42.435 C3.213,42.801 4.378,43.68 4.378,43.68 C4.378,43.68 3.272,45.094 3.884,45.528 C4.645,46.068 5.612,46.317 5.871,47.328 C5.94680483,48.1291298 5.86666115,48.9373584 5.635,49.708 C5.5563755,50.461975 5.65499664,51.2238918 5.923,51.933 C6.28395493,53.3512509 7.70070311,54.2311447 9.132,53.926 C12.0837266,53.209144 14.9943455,52.3325199 17.851,51.3" id="Shape" fill="#FB7B76" fill-rule="nonzero"/><path d="M42,36 C42,32.511 45.92,31.011 47.877,28.827 C49.9516033,26.4488525 51.0641698,23.3821629 50.997,20.227 C50.9439332,13.5853166 45.6394784,8.17916766 39,8 C32.3599544,8.17808136 27.0541736,13.5837878 27,20.226 C26.9328302,23.3811629 28.0453967,26.4478525 30.12,28.826 C32.081,31.011 36,32.511 36,36 L42,36 Z" id="Shape" fill="#F0C419"/><path d="M9.227,17.467 C8.96351193,17.4090801 8.73460382,17.2471569 8.59224806,17.0179942 C8.4498923,16.7888316 8.40616709,16.5118728 8.471,16.25 C8.62815969,15.5552533 8.82515171,14.8701218 9.061,14.198 C9.7565457,12.2734195 10.8341474,10.509391 12.229,9.012 C13.853,7.3 16.516,6.06 20.145,5.338 C20.6867913,5.23030449 21.2133045,5.58220868 21.321,6.12400001 C21.4286955,6.66579133 21.0767913,7.19230446 20.535,7.3 C17.321,7.939 15.015,8.978 13.682,10.386 C12.4735494,11.6858491 11.5402067,13.2164768 10.938,14.886 C10.7285574,15.4871971 10.5536061,16.0998605 10.414,16.721 C10.2880679,17.2518234 9.7599176,17.5837527 9.227,17.467 Z" id="Shape" fill="#ECF0F1" fill-rule="nonzero"/><circle id="Oval" fill="#ECF0F1" fill-rule="nonzero" cx="8" cy="21" r="1"/><path d="M36,42 L42,42 L42,43 C42,44.6568542 40.6568542,46 39,46 C37.3431458,46 36,44.6568542 36,43 L36,42 Z" id="Shape" fill="#95A5A5" fill-rule="nonzero"/><path d="M58,21 L55,21 C54.4477153,21 54,20.5522847 54,20 C54,19.4477153 54.4477153,19 55,19 L58,19 C58.5522847,19 59,19.4477153 59,20 C59,20.5522847 58.5522847,21 58,21 Z" id="Shape" fill="#F0C419" fill-rule="nonzero"/><path d="M50.313,9.687 C49.9081643,9.68731896 49.5430763,9.44352001 49.3882414,9.06946359 C49.2334066,8.69540717 49.3193761,8.26489995 49.606,7.979 L51.728,5.858 C51.9790745,5.59804342 52.3508779,5.4937874 52.7005073,5.58530284 C53.0501368,5.67681828 53.3231817,5.94986324 53.4146972,6.29949268 C53.5062126,6.64912211 53.4019566,7.02092553 53.142,7.272 L51.021,9.394 C50.8332623,9.58179456 50.5785413,9.68720875 50.313,9.687 Z" id="Shape" fill="#F0C419" fill-rule="nonzero"/><path d="M39,5 C38.4477153,5 38,4.55228475 38,4 L38,1 C38,0.44771525 38.4477153,1.01453063e-16 39,0 C39.5522847,-1.01453063e-16 40,0.44771525 40,1 L40,4 C40,4.55228475 39.5522847,5 39,5 Z" id="Shape" fill="#F0C419" fill-rule="nonzero"/><path d="M27.687,9.687 C27.4214587,9.68720875 27.1667377,9.58179456 26.979,9.394 L24.858,7.272 C24.5980434,7.02092553 24.4937874,6.64912211 24.5853028,6.29949268 C24.6768183,5.94986324 24.9498632,5.67681828 25.2994927,5.58530284 C25.6491221,5.4937874 26.0209255,5.59804342 26.272,5.858 L28.394,7.979 C28.6806239,8.26489995 28.7665934,8.69540717 28.6117586,9.06946359 C28.4569237,9.44352001 28.0918357,9.68731896 27.687,9.687 Z" id="Shape" fill="#F0C419" fill-rule="nonzero"/><path d="M23,21 L20,21 C19.4477153,21 19,20.5522847 19,20 C19,19.4477153 19.4477153,19 20,19 L23,19 C23.5522847,19 24,19.4477153 24,20 C24,20.5522847 23.5522847,21 23,21 Z" id="Shape" fill="#F0C419" fill-rule="nonzero"/><ellipse id="Oval" fill="#F3D55B" fill-rule="nonzero" cx="39" cy="18" rx="9" ry="10"/><path d="M41,37 C40.4477153,37 40,36.5522847 40,36 L40,24 L38,24 L38,36 C38,36.5522847 37.5522847,37 37,37 C36.4477153,37 36,36.5522847 36,36 L36,24 L35,24 C33.3431458,24 32,22.6568542 32,21 C32,19.3431458 33.3431458,18 35,18 C36.6568542,18 38,19.3431458 38,21 L38,22 L40,22 L40,21 C40,19.3431458 41.3431458,18 43,18 C44.6568542,18 46,19.3431458 46,21 C46,22.6568542 44.6568542,24 43,24 L42,24 L42,36 C42,36.5522847 41.5522847,37 41,37 Z M42,22 L43,22 C43.5522847,22 44,21.5522847 44,21 C44,20.4477153 43.5522847,20 43,20 C42.4477153,20 42,20.4477153 42,21 L42,22 Z M35,20 C34.4477153,20 34,20.4477153 34,21 C34,21.5522847 34.4477153,22 35,22 L36,22 L36,21 C36,20.4477153 35.5522847,20 35,20 Z" id="Shape" fill="#F29C1F" fill-rule="nonzero"/><rect id="Rectangle-path" fill="#BDC3C7" fill-rule="nonzero" x="34.001" y="36" width="10" height="6" rx="2"/></g></g></svg>
