<svg id="Capa_1" enable-background="new 0 0 512 512" height="512" viewBox="0 0 512 512" width="512" xmlns="http://www.w3.org/2000/svg"><g><g><path d="m397.739 340.25c-63.003 0-114.261-51.257-114.261-114.26 0-25.758 16.893-67.562 51.642-127.799 24.826-43.035 62.619-98.191 62.619-98.191s37.794 55.156 62.619 98.191c34.749 60.237 51.642 102.041 51.642 127.799 0 63.004-51.257 114.26-114.261 114.26z" fill="#ff0059"/><path d="m397.739 340.25v-340.25s37.794 55.156 62.619 98.191c34.749 60.237 51.642 102.041 51.642 127.799 0 63.004-51.257 114.26-114.261 114.26z" fill="#d20041"/></g><g><path d="m256 440.358c-63.003 0-114.261-51.257-114.261-114.26 0-25.758 16.893-67.562 51.642-127.799 24.825-43.036 62.619-98.192 62.619-98.192s37.794 55.156 62.619 98.191c34.749 60.237 51.642 102.041 51.642 127.799 0 63.004-51.257 114.261-114.261 114.261z" fill="#fff587"/><path d="m256 440.358v-340.25s37.794 55.156 62.619 98.191c34.749 60.237 51.642 102.041 51.642 127.799 0 63.003-51.257 114.26-114.261 114.26z" fill="#ffda2d"/></g><path d="m114.261 512c-63.004 0-114.261-51.257-114.261-114.26 0-25.758 16.893-67.562 51.642-127.799 24.826-43.035 62.619-98.191 62.619-98.191s37.794 55.156 62.619 98.191c34.749 60.237 51.642 102.041 51.642 127.799-.001 63.003-51.258 114.26-114.261 114.26z" fill="#8cc1fd"/><path d="m114.261 512v-340.25s37.794 55.156 62.619 98.191c34.749 60.237 51.642 102.041 51.642 127.799-.001 63.003-51.258 114.26-114.261 114.26z" fill="#65adfd"/></g></svg>