<?xml version="1.0" encoding="iso-8859-1"?>
<!-- Generator: Adobe Illustrator 19.0.0, SVG Export Plug-In . SVG Version: 6.00 Build 0)  -->
<svg version="1.1" id="Capa_1" xmlns="http://www.w3.org/2000/svg" xmlns:xlink="http://www.w3.org/1999/xlink" x="0px" y="0px"
	 viewBox="0 0 512 512" style="enable-background:new 0 0 512 512;" xml:space="preserve">
<polygon style="fill:#1952A5;" points="107.457,349.641 142.839,383.684 259.163,305.536 257.794,297.484 197.303,234.96 
	186.99,233.363 "/>
<path style="fill:#FFAD6A;" d="M481.325,11.201L481.325,11.201c13.03,13.03,14.96,32.529,4.376,44.214L259.162,305.536
	l-72.173-72.173L437.111,6.825C448.797-3.759,468.295-1.829,481.325,11.201z"/>
<path id="SVGCleanerId_0" style="fill:#FF5E2C;" d="M54.757,355.218c22.796-22.796,59.755-22.796,82.551,0s24.346,61.419,0,82.551
	c-15.941,13.837-41.506,16.607-56.536,19.249c-16.484,2.899-26.706,13.202-32.644,22.496c-6.194,9.694-10.843,23.962-10.843,23.962
	l-0.006,0.004C8.7,457.058,14.526,395.449,54.757,355.218"/>
<path style="fill:#EA875C;" d="M481.325,11.201C468.361-1.763,448.997-3.734,437.292,6.67c1.892,1.32,3.707,2.829,5.41,4.531
	c13.03,13.03,14.96,32.529,4.376,44.214L238.895,285.269l20.267,20.267L485.701,55.415C496.285,43.729,494.355,24.23,481.325,11.201
	z"/>
<polygon style="fill:#03427A;" points="238.84,285.214 124.887,361.769 109.372,346.841 107.457,349.641 142.839,383.684 
	259.162,305.536 "/>
<g>
	<path id="SVGCleanerId_0_1_" style="fill:#FF5E2C;" d="M54.757,355.218c22.796-22.796,59.755-22.796,82.551,0
		s24.346,61.419,0,82.551c-15.941,13.837-41.506,16.607-56.536,19.249c-16.484,2.899-26.706,13.202-32.644,22.496
		c-6.194,9.694-10.843,23.962-10.843,23.962l-0.006,0.004C8.7,457.058,14.526,395.449,54.757,355.218"/>
</g>
<path style="fill:#F44242;" d="M137.308,355.218c-8.654-8.654-19.35-14.014-30.536-16.097c0.333,0.318,0.673,0.624,1,0.951
	c22.796,22.796,24.346,61.419,0,82.551c-15.941,13.837-41.506,16.607-56.536,19.249c-14.298,2.514-23.879,10.599-30.045,18.764
	c2.535,14.955,7.888,29.526,16.088,42.844l0.006-0.004c0,0,4.649-14.268,10.843-23.962c5.938-9.294,16.16-19.597,32.644-22.496
	c15.03-2.643,40.594-5.413,56.536-19.249C161.654,416.637,160.103,378.014,137.308,355.218z"/>
<g>
	<path style="fill:#FF5E2C;" d="M282.781,512H45.799c-4.706,0-8.52-3.815-8.52-8.52s3.814-8.52,8.52-8.52h236.982
		c4.706,0,8.52,3.815,8.52,8.52C291.3,508.185,287.486,512,282.781,512z"/>
	<path style="fill:#FF5E2C;" d="M388.134,512h-59.476c-4.706,0-8.52-3.815-8.52-8.52s3.814-8.52,8.52-8.52h59.476
		c4.706,0,8.52,3.815,8.52,8.52S392.84,512,388.134,512z"/>
</g>
<g>
</g>
<g>
</g>
<g>
</g>
<g>
</g>
<g>
</g>
<g>
</g>
<g>
</g>
<g>
</g>
<g>
</g>
<g>
</g>
<g>
</g>
<g>
</g>
<g>
</g>
<g>
</g>
<g>
</g>
</svg>
