<svg height="512" viewBox="0 0 512 512" width="512" xmlns="http://www.w3.org/2000/svg"><g id="BULINE"><circle cx="256" cy="256" fill="#00b564" r="256"/></g><g id="Icons"><path d="m417.89 57.69v149.51 247.1a256 256 0 0 1 -417.89-198.3c0-116.08 77.27-214.12 183.18-245.49a256.44 256.44 0 0 1 234.71 47.18z" fill="#3586cb"/><path d="m241 231.91c2 10.13 3 20.33 2 29.49-2.11 20.59-13.95 36-45.88 33.45-14.63-1.15-28.46 7.33-33.32 21.17-4.79 13.66-1.66 29.51 31.56 36.94 26.3 5.89 45 29.77 43.86 56.7-.87 19.92-12.18 33.85-51.67 15.61a116.67 116.67 0 0 0 -34.26-10c-22.58-2.82-52.28-.6-50.6 31.16a88.15 88.15 0 0 1 -.39 14.36 255.63 255.63 0 0 1 -102.3-204.79c0-116.08 77.27-214.12 183.18-245.49 40.94 12.36 91 34.94 47.17 63.79a90.77 90.77 0 0 1 -8.17 4.7c-4.35 2.25-15.63 9-21.93 21.47a40.74 40.74 0 0 0 -4.06 13.06c-1.26 9.44.46 21 7.6 34.84a114.59 114.59 0 0 0 7.27 12.14q1.69 2.49 3.31 5 2.4 3.74 4.63 7.58 3.38 5.84 6.34 11.89 2.29 4.69 4.31 9.52 2.29 5.46 4.2 11.09c1.22 3.6 2.41 7.37 3.5 11.24 1.4 4.95 2.65 10.01 3.65 15.08z" fill="#4697d3"/><path d="m278.69 354.67h-24.38v-69.5a30.51 30.51 0 0 1 30.48-30.48h132.3a20.15 20.15 0 0 0 20.12-20.12v-57.15h-90.21v-24.42h102.4a12.2 12.2 0 0 1 12.2 12.19v69.35a44.56 44.56 0 0 1 -44.51 44.5h-132.3a6.11 6.11 0 0 0 -6.1 6.1z" fill="#fff"/><rect fill="#fcc8bc" height="103.32" rx="21.34" width="309.72" x="111.64" y="113.56"/><path d="m421.36 194.55v1a21.34 21.34 0 0 1 -21.36 21.33h-267a21.33 21.33 0 0 1 -21.34-21.34v-60.64a21.34 21.34 0 0 1 21.34-21.34h7.66v59.65a21.33 21.33 0 0 0 21.34 21.34z" fill="#fab3a7"/><path d="m297.94 254.69h-14a30.51 30.51 0 0 0 -30.48 30.48v69.5h14v-9.75h11.23v-11.25h-11.23v-48.5a30.51 30.51 0 0 1 30.48-30.48z" fill="#cecccc"/><path d="m436.36 177.42v57.15a20.15 20.15 0 0 1 -20.12 20.12h14a20.15 20.15 0 0 0 20.12-20.12v-57.15z" fill="#cecccc"/><path d="m297 344.92h-60.36a9.21 9.21 0 0 0 -8.78 11.95l3 9.57a23.69 23.69 0 0 0 1 2.67 24.49 24.49 0 0 0 1.28 2.5c.23.4.48.8.74 1.18a24.32 24.32 0 0 0 3.53 4.22 24.93 24.93 0 0 0 8.05 5.16v99.93.66a1.77 1.77 0 0 0 0 .23c0 .25 0 .5.05.75l.06.69c.07.67.18 1.32.31 2 .07.32.14.65.22 1 .17.64.36 1.26.57 1.88.11.31.23.61.35.91.25.6.52 1.19.82 1.76.15.29.31.57.47.85s.32.55.5.83a21.9 21.9 0 0 0 1.51 2.07 19.71 19.71 0 0 0 1.38 1.52 21.35 21.35 0 0 0 20.3 5.56l.86-.23h.12l.58-.19a4.72 4.72 0 0 0 .53-.18l.76-.29a21.33 21.33 0 0 0 13.33-19.78v-99.97a24.94 24.94 0 0 0 14.62-15.73l3-9.57a9.21 9.21 0 0 0 -8.8-11.95zm-30.2 146.91a12.53 12.53 0 0 1 -3.2-.41 14 14 0 0 1 -10.14-13.67 14.14 14.14 0 0 1 8-12.91 12.75 12.75 0 0 1 5.34-1.17c7.38 0 13.35 6.3 13.35 14.08s-5.97 14.08-13.35 14.08z" fill="#db1b1b"/><path d="m274.81 501.88-.76.29a4.72 4.72 0 0 1 -.53.18l-.58.19h-.12l-.86.23a21.35 21.35 0 0 1 -20.24-5.62 19.71 19.71 0 0 1 -1.38-1.52 21.34 21.34 0 0 1 -4.88-13.57v-99.89a24.93 24.93 0 0 1 -8.05-5.16 24.32 24.32 0 0 1 -3.53-4.22c-.26-.38-.51-.78-.74-1.18a24.49 24.49 0 0 1 -1.28-2.5 23.69 23.69 0 0 1 -1-2.67l-3-9.57a9.21 9.21 0 0 1 8.78-11.95h16a9.21 9.21 0 0 0 -8.78 11.95l3 9.57a24.9 24.9 0 0 0 14.61 15.73v82.67a14.14 14.14 0 0 0 -8 12.91 14 14 0 0 0 10.14 13.67 21.38 21.38 0 0 0 11.2 10.46z" fill="#bf1616"/><ellipse cx="269.55" cy="360.83" fill="#ea4242" rx="11.5" ry="5.83"/><ellipse cx="290.48" cy="360.83" fill="#ea4242" rx="7.59" ry="3.85"/><path d="m282.72 100.5h-117.5a15.21 15.21 0 0 0 -15.22 15.22v97c0 14.42 10.19 26.11 22.75 26.11s22.75-11.69 22.75-26.11v-24.72a22.75 22.75 0 0 1 45.5 0v62.4c0 16.35 12.75 29.6 28.47 29.6 15.72 0 28.47-13.25 28.47-29.6v-134.68a15.21 15.21 0 0 0 -15.22-15.22z" fill="#366fca"/><path d="m195.5 190.72v22c0 14.42-10.19 26.11-22.75 26.11s-22.75-11.69-22.75-26.11v-22c0 14.42 10.19 26.11 22.75 26.11s22.75-11.69 22.75-26.11z" fill="#3366af"/><path d="m241 188a22.75 22.75 0 0 0 -45.5 0v-22a22.75 22.75 0 0 1 45.5 0z" fill="#3366af"/><path d="m297.94 228.4v22a30.09 30.09 0 0 1 -8.34 20.93 27.83 27.83 0 0 1 -20.13 8.67c-15.72 0-28.47-13.25-28.47-29.6v-22c0 16.35 12.75 29.6 28.47 29.6a27.83 27.83 0 0 0 20.13-8.67 30.09 30.09 0 0 0 8.34-20.93z" fill="#3366af"/><ellipse cx="280.75" cy="188.23" fill="#5590e5" rx="8.25" ry="15.25"/><ellipse cx="280.75" cy="217.99" fill="#5590e5" rx="5.4" ry="9.98"/><g fill="#fab3a7"><circle cx="374" cy="140.5" r="7"/><circle cx="316.5" cy="129.5" r="7"/><circle cx="363" cy="177.42" r="7"/><circle cx="220.5" cy="179.98" r="7"/><circle cx="327" cy="172.98" r="10.5"/><circle cx="403.5" cy="177.42" r="10.5"/><circle cx="405.74" cy="133.5" r="10.5"/></g></g></svg>