<?xml version="1.0" encoding="iso-8859-1"?>
<!-- Generator: Adobe Illustrator 19.0.0, SVG Export Plug-In . SVG Version: 6.00 Build 0)  -->
<svg version="1.1" id="Capa_1" xmlns="http://www.w3.org/2000/svg" xmlns:xlink="http://www.w3.org/1999/xlink" x="0px" y="0px"
	 viewBox="0 0 512 512" style="enable-background:new 0 0 512 512;" xml:space="preserve">
<rect x="59.733" y="45.867" style="fill:#F2F2F2;" width="392.533" height="425.6"/>
<polygon style="fill:#CDD6E0;" points="433.067,472.533 78.933,472.533 100.267,491.733 411.733,491.733 "/>
<path style="fill:#FFD15C;" d="M50.133,37.333V140.8c0,5.333,4.267,10.667,10.667,10.667h8.533c13.867,0,25.6,11.733,25.6,25.6
	v61.867c0,11.733,9.6,21.333,21.333,21.333l0,0c11.733,0,21.333-9.6,21.333-21.333v-22.4c0-11.733,8.533-21.333,19.2-22.4
	c12.8-1.067,23.467,8.533,23.467,21.333V246.4c0,11.733,8.533,21.333,19.2,22.4c12.8,1.067,23.467-8.533,23.467-21.333V182.4
	c0-11.733,8.533-21.333,19.2-22.4c12.8-1.067,23.467,8.533,23.467,21.333V262.4c0,11.733,9.6,21.333,21.333,21.333l0,0
	c11.733,0,21.333-9.6,21.333-21.333v-81.067c0-16,12.8-29.867,29.867-29.867h108.8c5.333,0,10.667-4.267,10.667-10.667V37.333
	H50.133z"/>
<path style="fill:#40596B;" d="M490.667,84.267h-28.8V105.6h28.8c0,129.067-105.6,234.667-234.667,234.667
	S21.333,234.667,21.333,105.6H41.6V84.267H21.333C9.6,84.267,0,93.867,0,105.6c0,140.8,115.2,256,256,256s256-115.2,256-256
	C512,93.867,502.4,84.267,490.667,84.267z"/>
<path style="fill:#FF7058;" d="M256,329.6c-28.8,0-55.467-5.333-80-14.933c-5.333-2.133-10.667-1.067-13.867,3.2l-12.8,11.733
	c-6.4,6.4-4.267,18.133,4.267,21.333c32,12.8,66.133,20.267,102.4,20.267s71.467-7.467,102.4-20.267
	c8.533-3.2,10.667-14.933,4.267-21.333l-11.733-11.733c-4.267-4.267-9.6-5.333-13.867-3.2C311.467,324.267,284.8,329.6,256,329.6z"
	/>
<g>
	<rect x="40.533" y="78.933" style="fill:#334A5E;" width="9.6" height="30.933"/>
	<rect x="461.867" y="78.933" style="fill:#334A5E;" width="9.6" height="30.933"/>
</g>
<path style="fill:#FCC854;" d="M50.133,65.067H51.2h409.6h1.067V37.333H50.133V65.067z"/>
<path style="fill:#F8B64C;" d="M460.8,20.267H51.2c-9.6,0-17.067,7.467-17.067,17.067l0,0c0,9.6,7.467,17.067,17.067,17.067h409.6
	c9.6,0,17.067-7.467,17.067-17.067l0,0C477.867,27.733,470.4,20.267,460.8,20.267z"/>
<g>
</g>
<g>
</g>
<g>
</g>
<g>
</g>
<g>
</g>
<g>
</g>
<g>
</g>
<g>
</g>
<g>
</g>
<g>
</g>
<g>
</g>
<g>
</g>
<g>
</g>
<g>
</g>
<g>
</g>
</svg>
