<svg id="Capa_1" enable-background="new 0 0 512 512" height="512" viewBox="0 0 512 512" width="512" xmlns="http://www.w3.org/2000/svg"><g><g><path d="m324.846 188.349h-289.01c-5.523 0-10-4.477-10-10v-168.349c0-5.523 4.477-10 10-10h289.01c5.523 0 10 4.477 10 10v168.349c0 5.523-4.477 10-10 10z" fill="#dd5790"/></g><path d="m324.846 0h-51.009c5.523 0 10 4.477 10 10v168.349c0 5.523-4.477 10-10 10h51.009c5.523 0 10-4.477 10-10v-168.349c0-5.523-4.477-10-10-10z" fill="#da387d"/><g><path d="m255.251 419.071c-4.265 0-7.722-3.457-7.722-7.722v-74.144c0-16.562 12.365-30.804 28.764-33.129l178.939-25.374c8.83-1.252 15.488-8.921 15.488-17.839v-42.39c0-7.096-5.773-12.87-12.87-12.87h-23.99c-4.265 0-7.722-3.457-7.722-7.722s3.457-7.722 7.722-7.722h23.991c15.612 0 28.313 12.702 28.313 28.313v42.39c0 16.562-12.365 30.804-28.764 33.129l-178.939 25.374c-8.83 1.252-15.488 8.921-15.488 17.839v74.144c0 4.266-3.457 7.723-7.722 7.723z" fill="#407093"/></g><g><path d="m424.721 263.142h-338.94c-11.046 0-20-8.954-20-20v-90.522c0-11.046 8.954-20 20-20h19.946l108.835 15.88 120.283-15.88h89.876c11.046 0 20 8.954 20 20v90.522c0 11.046-8.954 20-20 20z" fill="#dae7ef"/></g><path d="m424.721 132.62h-15.971v74.551c0 11.046-8.954 20-20 20h-322.969v15.971c0 11.046 8.954 20 20 20h338.94c11.046 0 20-8.954 20-20v-90.522c0-11.046-8.954-20-20-20z" fill="#c1d5e4"/><g><path d="m285.206 342.474h-59.909c-2.843 0-5.148 2.305-5.148 5.148v16.649c0 8.394 1.756 16.695 5.155 24.369 3.399 7.675 5.155 15.976 5.155 24.369v93.842c0 2.843 2.305 5.148 5.148 5.148h39.289c2.843 0 5.148-2.305 5.148-5.148v-93.841c0-8.394 1.756-16.695 5.155-24.369 3.399-7.675 5.155-15.976 5.155-24.369v-16.649c0-2.844-2.305-5.149-5.148-5.149z" fill="#407093"/></g><g><path d="m285.206 342.475h-23.727c2.843 0 5.148 2.305 5.148 5.148v16.649c0 8.394-1.756 16.695-5.155 24.369-3.399 7.675-5.155 15.976-5.155 24.37v93.842c0 2.843-2.305 5.148-5.148 5.148h23.727c2.843 0 5.148-2.305 5.148-5.148v-93.843c0-8.394 1.756-16.695 5.155-24.37 3.399-7.675 5.155-15.976 5.155-24.369v-16.649c0-2.843-2.305-5.147-5.148-5.147z" fill="#2b4d66"/></g><g><path d="m105.727 132.62v44.013c0 15.353 12.446 27.798 27.798 27.798 5.875 0 11.321-1.826 15.809-4.937 1.356-.94 3.208.053 3.208 1.703v3.55c0 15.353 12.446 27.798 27.798 27.798 15.353 0 27.798-12.446 27.798-27.798v-21.541c0-1.138.922-2.06 2.06-2.06h72.85c9.161 0 17.282-4.434 22.345-11.27.801-1.081 2.45-1.081 3.251 0 5.063 6.836 13.185 11.27 22.345 11.27 3.959 0 7.722-.832 11.13-2.325 1.219-.534 2.635.265 2.814 1.583 1.849 13.558 13.468 24.007 27.534 24.007 15.353 0 27.798-12.446 27.798-27.798v-43.993z" fill="#df75a5"/></g><g><g><path d="m375.944 132.62v43.992c0 10.99-6.38 20.489-15.636 25.001 3.673 1.791 7.799 2.798 12.161 2.798 15.353 0 27.798-12.446 27.798-27.798v-43.993z" fill="#dd5790"/></g></g><g><path d="m150.079 327.947c0 12.234-9.918 22.152-22.152 22.152s-22.152-9.918-22.152-22.152c0-8.452 10.572-24.71 17.109-33.955 2.464-3.484 7.622-3.484 10.085 0 6.538 9.245 17.11 25.503 17.11 33.955z" fill="#df75a5"/></g><g><path d="m132.97 293.993c-2.464-3.484-7.622-3.484-10.085 0-.215.304-.435.616-.658.935 4.768 7.847 9.005 16.325 9.005 21.676 0 12.234-9.918 22.152-22.152 22.152-.167 0-.329-.021-.495-.025 3.788 6.779 11.025 11.369 19.342 11.369 12.234 0 22.152-9.918 22.152-22.152 0-8.453-10.572-24.711-17.109-33.955z" fill="#dd5790"/></g></g></svg>