<?xml version="1.0" encoding="UTF-8"?>
<svg xmlns="http://www.w3.org/2000/svg" xmlns:xlink="http://www.w3.org/1999/xlink" width="463.29pt" height="179.92pt" viewBox="0 0 463.29 179.92" version="1.1">
<defs>
<clipPath id="clip1">
  <path d="M 0 0 L 463.289063 0 L 463.289063 179.921875 L 0 179.921875 Z M 0 0 "/>
</clipPath>
</defs>
<g id="surface1">
<g clip-path="url(#clip1)" clip-rule="nonzero">
<path style=" stroke:none;fill-rule:nonzero;fill:rgb(3.49884%,0.39978%,0.799561%);fill-opacity:1;" d="M 0 179.921875 L 463.296875 179.921875 L 463.296875 0 L 0 0 Z M 0 179.921875 "/>
</g>
<path style=" stroke:none;fill-rule:nonzero;fill:rgb(16.099548%,21.998596%,56.498718%);fill-opacity:1;" d="M 0 160.066406 L 27.875 160.066406 L 27.875 132.183594 L 0 132.183594 Z M 0 160.066406 "/>
<path style=" stroke:none;fill-rule:nonzero;fill:rgb(9.399414%,45.899963%,73.298645%);fill-opacity:1;" d="M 36.632813 160.066406 L 64.507813 160.066406 L 64.507813 132.183594 L 36.632813 132.183594 Z M 36.632813 160.066406 "/>
<path style=" stroke:none;fill-rule:nonzero;fill:rgb(54.899597%,77.598572%,24.299622%);fill-opacity:1;" d="M 73.257813 160.066406 L 101.132813 160.066406 L 101.132813 132.183594 L 73.257813 132.183594 Z M 73.257813 160.066406 "/>
<path style=" stroke:none;fill-rule:nonzero;fill:rgb(100%,94.499207%,0%);fill-opacity:1;" d="M 109.886719 160.066406 L 137.761719 160.066406 L 137.761719 132.183594 L 109.886719 132.183594 Z M 109.886719 160.066406 "/>
<path style=" stroke:none;fill-rule:nonzero;fill:rgb(96.899414%,57.598877%,10.998535%);fill-opacity:1;" d="M 146.515625 160.066406 L 174.386719 160.066406 L 174.386719 132.183594 L 146.515625 132.183594 Z M 146.515625 160.066406 "/>
<path style=" stroke:none;fill-rule:nonzero;fill:rgb(92.89856%,10.998535%,13.699341%);fill-opacity:1;" d="M 183.136719 160.066406 L 211.015625 160.066406 L 211.015625 132.183594 L 183.136719 132.183594 Z M 183.136719 160.066406 "/>
<path style=" stroke:none;fill-rule:nonzero;fill:rgb(100%,100%,100%);fill-opacity:1;" d="M 51.234375 85.539063 C 58.15625 91.75 67.867188 96.097656 78.609375 96.097656 C 91.5625 95.972656 100.679688 91.871094 100.679688 84.414063 C 100.679688 67.019531 41.078125 83.804688 41.078125 51.972656 C 41.078125 38.054688 58.296875 28.484375 79.339844 28.484375 C 94.640625 28.484375 107.007813 32.585938 116.132813 40.402344 L 103.480469 49.984375 C 95.085938 43.023438 87.429688 40.671875 78.464844 40.671875 C 64.328125 40.671875 59.03125 46.515625 59.03125 51.226563 C 59.03125 68.761719 118.636719 51.226563 118.636719 83.664063 C 118.636719 99.953125 99.058594 109.773438 77.867188 109.773438 C 64.925781 109.773438 49.90625 105.664063 38.285156 95.347656 "/>
<path style=" stroke:none;fill-rule:nonzero;fill:rgb(100%,100%,100%);fill-opacity:1;" d="M 134.238281 70.492188 C 134.238281 55.203125 146.300781 46.386719 160.285156 46.386719 C 171.027344 46.386719 178.824219 50.734375 181.621094 57.070313 L 181.917969 57.070313 C 184.714844 50.734375 192.515625 46.386719 203.253906 46.386719 C 217.230469 46.386719 229.304688 55.203125 229.304688 70.492188 L 229.304688 108.144531 L 213.996094 108.144531 L 213.996094 70.621094 C 213.996094 63.402344 208.550781 59.3125 202.226563 59.3125 C 194.863281 59.3125 189.417969 63.046875 189.417969 72.351563 L 189.417969 108.144531 L 174.113281 108.144531 L 174.113281 72.351563 C 174.113281 63.046875 168.671875 59.3125 161.3125 59.3125 C 154.988281 59.3125 149.539063 63.402344 149.539063 70.621094 L 149.539063 108.144531 L 134.238281 108.144531 "/>
<path style=" stroke:none;fill-rule:nonzero;fill:rgb(100%,100%,100%);fill-opacity:1;" d="M 282.289063 97.589844 C 294.34375 97.589844 304.648438 88.894531 304.648438 78.078125 C 304.648438 67.269531 294.34375 58.566406 282.289063 58.566406 C 269.929688 58.566406 259.625 67.269531 259.625 78.078125 C 259.625 88.894531 269.929688 97.589844 282.289063 97.589844 M 304.074219 100.820313 L 303.769531 100.820313 C 298.921875 106.292969 290.082031 109.773438 280.371094 109.773438 C 256.980469 109.773438 243.4375 93.609375 243.4375 78.078125 C 243.4375 63.285156 258.007813 46.386719 281.105469 46.386719 C 291.710938 46.386719 299.804688 50.234375 303.769531 55.339844 L 304.074219 55.339844 L 304.074219 47.996094 L 319.371094 47.996094 L 319.371094 108.148438 L 304.074219 108.148438 "/>
<path style=" stroke:none;fill-rule:nonzero;fill:rgb(100%,100%,100%);fill-opacity:1;" d="M 338.804688 47.996094 L 353.226563 47.996094 L 353.226563 54.59375 L 353.515625 54.59375 C 356.023438 49.609375 361.320313 46.386719 367.492188 46.386719 C 370.882813 46.386719 373.820313 47.136719 375.882813 48.238281 L 370.441406 61.054688 C 368.96875 60.058594 366.179688 59.3125 364.710938 59.3125 C 359.113281 59.3125 354.105469 62.90625 354.105469 68.378906 L 354.105469 108.144531 L 338.804688 108.144531 "/>
<path style=" stroke:none;fill-rule:nonzero;fill:rgb(100%,100%,100%);fill-opacity:1;" d="M 385.128906 47.996094 L 393.808594 47.996094 L 393.808594 32.089844 L 409.109375 28.484375 L 409.109375 47.996094 L 421.328125 47.996094 L 421.328125 60.183594 L 409.109375 60.183594 L 409.109375 83.921875 C 409.109375 90.382813 410.882813 93.355469 415.4375 95.605469 L 423.6875 99.570313 L 416.90625 109.773438 C 401.164063 103.4375 393.808594 98.828125 393.808594 86.28125 L 393.808594 60.183594 L 385.128906 60.183594 "/>
<path style=" stroke:none;fill-rule:nonzero;fill:rgb(100%,100%,100%);fill-opacity:1;" d="M 238.246094 146.429688 L 250.703125 146.429688 C 256.578125 146.429688 259.226563 143.367188 259.226563 139.863281 C 259.226563 136.359375 256.578125 133.292969 250.703125 133.292969 L 238.246094 133.292969 Z M 229.933594 146.429688 L 229.933594 126.417969 L 251.355469 126.417969 C 261.378906 126.417969 267.539063 132.167969 267.539063 139.863281 C 267.539063 147.558594 261.378906 153.3125 251.355469 153.3125 L 238.246094 153.3125 L 238.246094 165.695313 L 229.933594 165.695313 L 229.933594 153.3125 "/>
<path style=" stroke:none;fill-rule:nonzero;fill:rgb(100%,100%,100%);fill-opacity:1;" d="M 289.671875 160.390625 C 295.550781 160.390625 300.558594 156 300.558594 150.554688 C 300.558594 145.117188 295.550781 140.746094 289.671875 140.746094 C 283.652344 140.746094 278.644531 145.117188 278.644531 150.554688 C 278.644531 156 283.652344 160.390625 289.671875 160.390625 M 300.269531 162 L 300.121094 162 C 297.769531 164.757813 293.464844 166.507813 288.738281 166.507813 C 277.351563 166.507813 270.761719 158.378906 270.761719 150.554688 C 270.761719 143.117188 277.851563 134.609375 289.09375 134.609375 C 294.257813 134.609375 298.195313 136.542969 300.121094 139.113281 L 300.269531 139.113281 L 300.269531 135.417969 L 307.722656 135.417969 L 307.722656 165.695313 L 300.269531 165.695313 "/>
<path style=" stroke:none;fill-rule:nonzero;fill:rgb(100%,100%,100%);fill-opacity:1;" d="M 317.320313 135.421875 L 324.773438 135.421875 L 324.773438 165.695313 L 317.320313 165.695313 Z M 321.042969 125.601563 C 323.339844 125.601563 325.203125 127.226563 325.203125 129.226563 C 325.203125 131.226563 323.339844 132.84375 321.042969 132.84375 C 318.753906 132.84375 316.890625 131.226563 316.890625 129.226563 C 316.890625 127.226563 318.753906 125.601563 321.042969 125.601563 "/>
<path style=" stroke:none;fill-rule:nonzero;fill:rgb(100%,100%,100%);fill-opacity:1;" d="M 334.371094 135.421875 L 341.820313 135.421875 L 341.820313 139.234375 L 341.96875 139.234375 C 344.046875 136.414063 347.839844 134.609375 352.5625 134.609375 C 359.871094 134.609375 366.023438 139.917969 366.023438 147.4375 L 366.023438 165.695313 L 358.570313 165.695313 L 358.570313 148.878906 C 358.570313 143.367188 355.28125 141.105469 350.34375 141.105469 C 345.539063 141.105469 341.820313 143.796875 341.820313 148.738281 L 341.820313 165.695313 L 334.371094 165.695313 "/>
<path style=" stroke:none;fill-rule:nonzero;fill:rgb(100%,100%,100%);fill-opacity:1;" d="M 372.332031 135.421875 L 376.558594 135.421875 L 376.558594 127.417969 L 384.007813 125.601563 L 384.007813 135.421875 L 389.949219 135.421875 L 389.949219 141.550781 L 384.007813 141.550781 L 384.007813 153.503906 C 384.007813 156.753906 384.859375 158.253906 387.078125 159.382813 L 391.09375 161.378906 L 387.800781 166.507813 C 380.144531 163.316406 376.558594 161.015625 376.558594 154.691406 L 376.558594 141.550781 L 372.332031 141.550781 "/>
<path style=" stroke:none;fill-rule:nonzero;fill:rgb(100%,100%,100%);fill-opacity:1;" d="M 398.472656 156.691406 C 401.121094 159.195313 405.488281 161.128906 409.359375 161.128906 C 413.65625 161.128906 416.234375 158.996094 416.234375 157.3125 C 416.234375 155.320313 414.449219 154.242188 411.722656 153.808594 L 407.496094 153.125 C 397.746094 151.570313 395.035156 148.816406 395.035156 144.492188 C 395.035156 139.351563 399.976563 134.609375 408.640625 134.609375 C 413.4375 134.609375 417.65625 135.851563 422.382813 138.796875 L 418.171875 143.371094 C 414.519531 140.660156 411.296875 139.992188 408.867188 139.992188 C 405.640625 139.992188 402.484375 141.367188 402.484375 143.796875 C 402.484375 145.625 404.125 146.554688 406.996094 146.996094 L 414.519531 148.25 C 420.679688 149.238281 423.6875 151.820313 423.6875 156.320313 C 423.6875 160.753906 419.53125 166.507813 408.996094 166.507813 C 403.121094 166.507813 398.117188 164.699219 393.386719 161.191406 "/>
</g>
</svg>
